<svg xmlns="http://www.w3.org/2000/svg" width="41" height="45" viewBox="0 0 41 45">
  <g id="icon-map-on" transform="translate(-313 -21)">
    <path id="Tracé_3434" data-name="Tracé 3434" d="M6,0H35a6,6,0,0,1,6,6V39a6,6,0,0,1-6,6H6a6,6,0,0,1-6-6V6A6,6,0,0,1,6,0Z" transform="translate(313 21)" fill="#6b4eae"/>
    <path id="Icon_awesome-map-marked-alt" data-name="Icon awesome-map-marked-alt" d="M10.258,0A4.488,4.488,0,0,0,5.77,4.488c0,2,2.933,5.656,4.057,6.982a.562.562,0,0,0,.862,0c1.124-1.326,4.057-4.978,4.057-6.982A4.488,4.488,0,0,0,10.258,0Zm0,5.984a1.5,1.5,0,1,1,1.5-1.5A1.5,1.5,0,0,1,10.258,5.984ZM.717,7.692A1.14,1.14,0,0,0,0,8.75v8.916a.57.57,0,0,0,.781.529L5.7,15.958v-8.3A10.787,10.787,0,0,1,4.942,6Zm9.542,5.119a1.7,1.7,0,0,1-1.3-.6c-.7-.826-1.445-1.767-2.119-2.733v6.483l6.839,2.28V9.475c-.674.965-1.418,1.906-2.119,2.733A1.7,1.7,0,0,1,10.258,12.811ZM19.735,5.74,14.818,7.979V18.237L19.8,16.244a1.14,1.14,0,0,0,.717-1.058V6.27A.57.57,0,0,0,19.735,5.74Z" transform="translate(323 34)" fill="#fff"/>
  </g>
</svg>
