<svg xmlns="http://www.w3.org/2000/svg" width="17.445" height="18.496" viewBox="0 0 17.445 18.496">
  <path id="icon-home-off" d="M20.452,8.77,14.877,3.242A2.429,2.429,0,0,0,13.057,2.5a2.582,2.582,0,0,0-1.819.77L5.43,9.167a.451.451,0,0,0,0,.653l.023.023a.451.451,0,0,0,.653,0l5.808-5.9a1.642,1.642,0,0,1,1.1-.49h.047a1.674,1.674,0,0,1,1.12.467l5.6,5.528a1.648,1.648,0,0,1,.49,1.143v6.345a2.081,2.081,0,0,1-2.076,2.076H7.832a2.105,2.105,0,0,1-2.1-2.1v-4.2a.468.468,0,0,0-.467-.467h0a.468.468,0,0,0-.467.467v4.222A3.066,3.066,0,0,0,7.856,19.99H18.212a3.026,3.026,0,0,0,3.032-3.032V10.59A2.663,2.663,0,0,0,20.452,8.77Z" transform="translate(-4.3 -1.994)" fill="#d4cdcd" stroke="#d4cdcd" stroke-width="1"/>
</svg>
