<svg xmlns="http://www.w3.org/2000/svg" width="30" height="30" viewBox="0 0 30 30">
  <g id="icon-telephone" transform="translate(-21 -197)">
    <rect id="Rectangle_557" data-name="Rectangle 557" width="30" height="30" rx="7" transform="translate(21 197)" fill="#fff6ea"/>
    <path id="Icon_feather-phone" data-name="Icon feather-phone" d="M17.195,13.523v2.116a1.411,1.411,0,0,1-1.538,1.411,13.958,13.958,0,0,1-6.087-2.165,13.753,13.753,0,0,1-4.232-4.232A13.958,13.958,0,0,1,3.174,4.537,1.411,1.411,0,0,1,4.577,3H6.693A1.411,1.411,0,0,1,8.1,4.213,9.056,9.056,0,0,0,8.6,6.195,1.411,1.411,0,0,1,8.28,7.683l-.9.9a11.285,11.285,0,0,0,4.232,4.232l.9-.9A1.411,1.411,0,0,1,14,11.6a9.056,9.056,0,0,0,1.982.494,1.411,1.411,0,0,1,1.213,1.432Z" transform="translate(25.991 202.239)" fill="none" stroke="#ffc524" stroke-linecap="round" stroke-linejoin="round" stroke-width="1"/>
  </g>
</svg>
