<svg xmlns="http://www.w3.org/2000/svg" width="25.339" height="25.338" viewBox="0 0 25.339 25.338">
  <g id="icon-id-face" transform="translate(-5225.781 -2689.272)">
    <path id="Tracé_116" data-name="Tracé 116" d="M5234,2689.272a.906.906,0,0,1,.58.623.8.8,0,0,1-.82.959c-1.681,0-3.362,0-5.043,0a1.312,1.312,0,0,0-1.327,1.1,2.115,2.115,0,0,0-.02.369q0,2.46,0,4.919a.788.788,0,0,1-.543.8.746.746,0,0,1-.874-.283.94.94,0,0,1-.158-.479c-.01-1.739-.02-3.478,0-5.216a2.892,2.892,0,0,1,2.357-2.741,1.6,1.6,0,0,0,.161-.05Z" transform="translate(0)" fill="#fff"/>
    <path id="Tracé_117" data-name="Tracé 117" d="M5484.582,2697.486c-.153.175-.274.408-.466.513a.776.776,0,0,1-1.116-.753c0-1.673,0-3.346,0-5.019a1.317,1.317,0,0,0-1.1-1.351,2.112,2.112,0,0,0-.369-.019q-2.461,0-4.921,0a.792.792,0,0,1-.321-1.533.83.83,0,0,0,.082-.049h5.69a1.619,1.619,0,0,0,.16.05,2.7,2.7,0,0,1,1.823,1.2,8.381,8.381,0,0,1,.54,1.277Z" transform="translate(-233.462)" fill="#fff"/>
    <path id="Tracé_118" data-name="Tracé 118" d="M5484.651,2945.443a3.474,3.474,0,0,1-.6,1.387,2.822,2.822,0,0,1-2.261,1.132c-1.7.015-3.4.006-5.093,0a.794.794,0,1,1,.011-1.582q2.46,0,4.92,0a1.331,1.331,0,0,0,1.444-1.447q0-2.386,0-4.771c0-.57.184-.875.593-.985s.721.076.99.573Z" transform="translate(-233.531 -233.361)" fill="#fff"/>
    <path id="Tracé_119" data-name="Tracé 119" d="M5231.2,2948.07c-.808,0-1.615,0-2.423,0a2.9,2.9,0,0,1-2.943-2.949q0-2.485,0-4.97a.8.8,0,1,1,1.583.01q0,2.448,0,4.9a1.327,1.327,0,0,0,1.435,1.431c1.649,0,3.3,0,4.946,0a.79.79,0,0,1,.784,1.091.772.772,0,0,1-.761.491Z" transform="translate(-0.052 -233.464)" fill="#fff"/>
    <path id="Tracé_120" data-name="Tracé 120" d="M5366.305,2788.617c0,.808,0,1.616,0,2.424a2.891,2.891,0,0,1-3,2.989c-.313,0-.626.005-.939,0a.789.789,0,1,1-.02-1.578c.321-.014.643,0,.965,0a1.307,1.307,0,0,0,1.407-1.4c0-1.674,0-3.348,0-5.021a1.5,1.5,0,0,1,.054-.438.783.783,0,0,1,1.522.238c.009.932,0,1.864,0,2.8Z" transform="translate(-126.801 -89.456)" fill="#fff"/>
    <path id="Tracé_121" data-name="Tracé 121" d="M5346.162,2952.437a5.085,5.085,0,0,1-4.285-2.428.793.793,0,1,1,1.333-.849,3.493,3.493,0,0,0,5.979,0,.793.793,0,1,1,1.339.84A5.109,5.109,0,0,1,5346.162,2952.437Z" transform="translate(-108.275 -242.309)" fill="#fff"/>
    <path id="Tracé_122" data-name="Tracé 122" d="M5490.859,2786.679c0,.264.006.528,0,.791a.79.79,0,0,1-1.579.008c-.009-.536-.01-1.072,0-1.607a.789.789,0,0,1,1.578-.008C5490.867,2786.135,5490.859,2786.407,5490.859,2786.679Z" transform="translate(-246.074 -89.489)" fill="#fff"/>
    <path id="Tracé_123" data-name="Tracé 123" d="M5305.745,2786.667c0-.272-.008-.544,0-.816a.78.78,0,0,1,.733-.76.747.747,0,0,1,.818.661,14.984,14.984,0,0,1,0,1.826.752.752,0,0,1-.831.676.787.787,0,0,1-.724-.771C5305.738,2787.211,5305.745,2786.938,5305.745,2786.667Z" transform="translate(-74.676 -89.483)" fill="#fff"/>
  </g>
</svg>
