<svg xmlns="http://www.w3.org/2000/svg" width="49" height="47" viewBox="0 0 49 47">
  <g id="Groupe_9387" data-name="Groupe 9387" transform="translate(-34 -284.208)">
    <rect id="Rectangle_572" data-name="Rectangle 572" width="49" height="47" rx="7" transform="translate(34 284.208)" fill="#fff6ea"/>
    <g id="Icon_feather-box" data-name="Icon feather-box" transform="translate(50.395 298.417)">
      <path id="Tracé_3344" data-name="Tracé 3344" d="M21.687,16.369V8.73a1.91,1.91,0,0,0-.955-1.652L14.048,3.259a1.91,1.91,0,0,0-1.91,0L5.455,7.078A1.91,1.91,0,0,0,4.5,8.73v7.639a1.91,1.91,0,0,0,.955,1.652l6.684,3.819a1.91,1.91,0,0,0,1.91,0l6.684-3.819A1.91,1.91,0,0,0,21.687,16.369Z" transform="translate(-4.5 -3.003)" fill="none" stroke="#f8981d" stroke-linecap="round" stroke-linejoin="round" stroke-width="1"/>
      <path id="Tracé_3345" data-name="Tracé 3345" d="M4.905,10.44l8.336,4.822,8.336-4.822" transform="translate(-4.647 -5.706)" fill="none" stroke="#f8981d" stroke-linecap="round" stroke-linejoin="round" stroke-width="1"/>
      <path id="Tracé_3346" data-name="Tracé 3346" d="M18,27.625V18" transform="translate(-9.406 -8.454)" fill="none" stroke="#f8981d" stroke-linecap="round" stroke-linejoin="round" stroke-width="1"/>
    </g>
  </g>
</svg>
