<svg xmlns="http://www.w3.org/2000/svg" width="17.125" height="17.125" viewBox="0 0 17.125 17.125">
  <path id="icon-historique-on" d="M17.687,9.109A8.563,8.563,0,0,1,3.751,15.791a.828.828,0,0,1-.063-1.229l.389-.389a.83.83,0,0,1,1.1-.068A6.353,6.353,0,1,0,4.772,4.5L6.525,6.248a.552.552,0,0,1-.391.943H1.115a.552.552,0,0,1-.552-.552V1.62a.552.552,0,0,1,.943-.391l1.7,1.7A8.562,8.562,0,0,1,17.687,9.109Zm-6.246,2.72.339-.436a.829.829,0,0,0-.145-1.163L10.23,9.137v-3.6A.829.829,0,0,0,9.4,4.706H8.849a.829.829,0,0,0-.829.829v4.683l2.258,1.756a.829.829,0,0,0,1.163-.145Z" transform="translate(-0.563 -0.563)" fill="#ffc524"/>
</svg>
