<svg xmlns="http://www.w3.org/2000/svg" width="205.862" height="81.574" viewBox="0 0 205.862 81.574">
  <g id="logo" transform="translate(-56.213 -181)">
    <g id="Groupe_292" data-name="Groupe 292" transform="translate(56.213 223.59)">
      <path id="Tracé_425" data-name="Tracé 425" d="M579.612,343.466c5.264,0,10.529-.049,15.793.012,8.025.093,12.918,3.623,13.517,9.65.821,8.262-3.755,15.4-11.091,17.115a27.082,27.082,0,0,1-5.853.733c-8.883.086-17.766.035-26.65.078-2.154.011-4.187-.193-4.1-2.957.079-2.526,2.029-2.72,4.042-2.717q13.819.02,27.638-.034c4.105-.015,7.156-1.742,8.811-5.632,2.487-5.845-.366-10.491-6.677-10.6-9.757-.168-19.516-.188-29.275-.268-1.426-.011-2.852.024-4.277-.009-1.758-.04-3.074-.8-3.044-2.694.03-1.841,1.276-2.694,3.07-2.7q9.048-.016,18.1,0Z" transform="translate(-532.966 -340.604)" fill="#fff"/>
      <path id="Tracé_426" data-name="Tracé 426" d="M798.888,367.37c2.662-4.563,4.862-8.3,7.032-12.065.861-1.492,1.64-2.883,3.786-1.768,2.126,1.1,2.038,2.772,1.127,4.426-1.793,3.257-3.73,6.439-5.72,9.581q-3.689,5.823-7.575,11.52a7.782,7.782,0,0,1-7.926,3.583,3.446,3.446,0,0,1-3.186-2.461c-.36-1.395-.541-3.079,1.893-2.6,2.9.575,4.439-1.282,5.9-3.277.382-.522.881-1.075.526-1.774-2.055-4.045-1.292-8.593-2.31-12.824-.285-1.185-.378-2.488-1.647-3.026a1.3,1.3,0,0,0-.973-.1c-.774.29-.574,1.44-1.346,1.818-.358.176-.831.053-1.778-.192s-.909-.4-1.5-.5a3.822,3.822,0,0,0-2.5.5,4.892,4.892,0,0,0-1.114,1.1,12.839,12.839,0,0,0-1.569,2.212,11.841,11.841,0,0,0-1.078,3.294c-.768,3.341-.746,3.988-1.326,5.843-.792,2.53-1.352,3.068-1.846,3.291a3.953,3.953,0,0,1-3.5-.038c-1.361-.7-1.2-2.013-.958-3.191,1.046-5.152,2.1-10.3,3.269-15.426a2.762,2.762,0,0,1,1.907-2.328A2.612,2.612,0,0,1,778.886,354c.884,1.152.364,2.574.815,2.715.468.147.919-1.427,2.535-2.7a5.7,5.7,0,0,1,3.853-1.321,4.4,4.4,0,0,1,2.4,1.231c.815.762,1.233.662,2.167.109,3.68-2.174,6.174-1.042,7.206,3.188a33.632,33.632,0,0,1,.655,4.547C798.673,363.293,798.725,364.828,798.888,367.37Z" transform="translate(-605.581 -343.752)" fill="#fff"/>
      <path id="Tracé_427" data-name="Tracé 427" d="M637.362,365.309c.117-8.983,10.006-15.517,17.67-11.767a5.712,5.712,0,0,1,3.546,6.044c-.184,2.792-1.909,4.318-4.386,5.149-2.859.958-5.828.91-8.795.906-.795,0-1.911-.456-2.227.738a2.5,2.5,0,0,0,.971,2.32c1.708,1.766,5.244,1.756,7.871-.169,1.2-.879,2.264-1.994,3.583-.333,1.247,1.57.526,3.068-.73,4.04-3.806,2.947-8.105,3.041-12.461,1.49C639.056,372.536,637.308,369.427,637.362,365.309Zm10.093-3.393a26.47,26.47,0,0,0,3.6-.512c1.179-.316,2.281-.963,2.077-2.506s-1.384-1.767-2.652-1.855a5.839,5.839,0,0,0-4.286,1.273c-.971.805-2.505,1.617-2,3.007C644.579,362.391,646.145,361.7,647.455,361.916Z" transform="translate(-559.908 -343.684)" fill="#fff"/>
      <path id="Tracé_428" data-name="Tracé 428" d="M748.392,365.729a10.336,10.336,0,0,0-1.661.014c-1.044.206-2.74-.788-2.943,1.027-.192,1.72.97,2.866,2.719,3.119,2.213.322,4.434.3,6.208-1.313,1.087-.987,2.029-1.731,3.289-.337,1.106,1.224.772,2.359-.143,3.521-2.2,2.789-7.585,3.828-12.214,2.321a8.24,8.24,0,0,1-5.912-7.839c-.475-8.823,8.595-15.681,16.969-12.835,2.6.884,4.336,2.389,4.36,5.418.025,3.072-1.5,4.867-4.254,5.889A16.828,16.828,0,0,1,748.392,365.729Zm-4.094-3.975a16.7,16.7,0,0,0,7.634-.4c1.036-.356,2-1.062,1.805-2.38-.188-1.29-1.239-1.652-2.366-1.83C748.432,356.685,745.9,358.28,744.3,361.754Z" transform="translate(-594.169 -343.784)" fill="#fff"/>
      <path id="Tracé_429" data-name="Tracé 429" d="M714.877,366.2c2.074-3.7,4.248-7.347,6.18-11.119.954-1.863,2.051-2.378,3.862-1.4a2.7,2.7,0,0,1,1.164,4.154c-1.763,3.024-3.664,5.968-5.526,8.933-1.222,1.946-2.416,3.914-3.733,5.8a4.479,4.479,0,0,1-4.879,1.926c-2.038-.436-2.661-1.888-2.854-3.858-.341-3.481-.906-6.941-1.421-10.4-.194-1.3-.447-2.729-1.649-3.447-2.316-1.386-.786-2.358.344-3.1,2.555-1.679,5.827-.19,6.506,3.08.641,3.09.9,6.258,1.331,9.392Z" transform="translate(-582.936 -343.862)" fill="#fff"/>
      <path id="Tracé_430" data-name="Tracé 430" d="M565.653,365.3c-4.922,0-9.845-.025-14.768.013-2.021.016-3.971-.221-4-2.731-.032-2.447,1.81-2.908,3.882-2.9q14.6.037,29.207.016c1.942,0,4.012.065,4.132,2.6.126,2.67-1.781,3.077-4.012,3.043-4.812-.074-9.626-.022-14.439-.022Z" transform="translate(-529.018 -346.148)" fill="#ffc524"/>
      <path id="Tracé_431" data-name="Tracé 431" d="M675.812,370.472c-2.957.092-4.913-2.063-4.28-5.208,1.509-7.494,3.259-14.94,4.85-22.418.542-2.548,2.334-2.643,4.269-2.281,2.16.4,1.887,2.084,1.569,3.633q-2,9.793-4.06,19.575a5.054,5.054,0,0,0-.108,3.207C679.128,369.465,678.532,370.387,675.812,370.472Z" transform="translate(-571.532 -339.569)" fill="#fff"/>
      <path id="Tracé_432" data-name="Tracé 432" d="M688.408,370.092c1.035-4.727,2.069-9.641,3.2-14.533.5-2.178,2.162-2.6,4.074-2.144,1.869.442,2.273,1.7,1.847,3.513-.9,3.826-1.682,7.679-2.459,11.531-.169.838-.472,1.957-.09,2.538.99,1.51,2.007,2.7-.583,3.57-2.451.823-5.038-.163-5.7-2.329A14.136,14.136,0,0,1,688.408,370.092Z" transform="translate(-577.335 -343.953)" fill="#fff"/>
      <path id="Tracé_433" data-name="Tracé 433" d="M698.495,345.633c-1.7-.157-3.166-.7-3.168-2.827,0-2.412,1.507-3.541,3.685-3.665a2.825,2.825,0,0,1,3.242,3.182C702.178,344.536,700.668,345.487,698.495,345.633Z" transform="translate(-579.697 -339.133)" fill="#fff"/>
      <path id="Tracé_434" data-name="Tracé 434" d="M551.47,376.814a2.588,2.588,0,0,1,2.995,2.729c.059,1.83-1.009,2.818-2.856,2.854-1.953.039-3.227-.887-3.2-2.884C548.432,377.671,549.7,376.866,551.47,376.814Z" transform="translate(-529.539 -351.996)" fill="#ffc524"/>
      <rect id="Rectangle_40" data-name="Rectangle 40" width="14.47" height="5.538" rx="2.769" transform="translate(0 13.656)" fill="#ffc524"/>
    </g>
    <text id="Boy" transform="translate(79.111 222)" fill="#ffc524" font-size="41" font-family="Nunito-Bold, Nunito" font-weight="700"><tspan x="0" y="0">Boy</tspan></text>
  </g>
</svg>
