<svg xmlns="http://www.w3.org/2000/svg" width="74.271" height="26.969" viewBox="0 0 74.271 26.969">
  <g id="logo_short" data-name="logo short" transform="translate(-56.213 -215.734)">
    <g id="Groupe_292" data-name="Groupe 292" transform="translate(56.213 215.734)">
      <path id="Tracé_425" data-name="Tracé 425" d="M579.117,343.465c5.141,0,10.283-.048,15.423.012,7.837.091,12.616,3.538,13.2,9.425.8,8.069-3.667,15.04-10.831,16.715a26.448,26.448,0,0,1-5.716.716c-8.675.084-17.351.034-26.026.077-2.1.01-4.089-.188-4-2.888.077-2.467,1.981-2.656,3.947-2.654q13.5.019,26.991-.033c4.009-.015,6.989-1.7,8.605-5.5,2.429-5.708-.358-10.245-6.521-10.352-9.528-.164-19.06-.184-28.59-.262-1.392-.011-2.786.023-4.177-.009-1.717-.039-3-.785-2.973-2.631.029-1.8,1.247-2.631,3-2.634q8.836-.015,17.673,0Z" transform="translate(-533.562 -343.44)" fill="#fff"/>
      <path id="Tracé_430" data-name="Tracé 430" d="M565.213,365.171c-4.807,0-9.615-.025-14.422.012-1.973.015-3.878-.216-3.909-2.667-.032-2.389,1.767-2.84,3.792-2.835q14.261.036,28.524.016c1.9,0,3.918.064,4.035,2.541.123,2.607-1.74,3-3.918,2.971-4.7-.072-9.4-.022-14.1-.022Z" transform="translate(-529.436 -349.235)" fill="#6b4eae"/>
      <path id="Tracé_434" data-name="Tracé 434" d="M551.4,376.814a2.527,2.527,0,0,1,2.925,2.665c.058,1.787-.985,2.752-2.789,2.787-1.908.038-3.152-.866-3.125-2.817C548.432,377.65,549.671,376.865,551.4,376.814Z" transform="translate(-529.98 -355.347)" fill="#6b4eae"/>
      <rect id="Rectangle_40" data-name="Rectangle 40" width="14.131" height="5.409" rx="2.704" transform="translate(0 10.566)" fill="#6b4eae"/>
    </g>
  </g>
</svg>
